<svg xmlns="http://www.w3.org/2000/svg">
    <symbol id="icon-home-1" viewBox="0 0 88 88" fill="currentColor" fill-rule="evenodd" clip-rule="evenodd"><path d="M18.3335 29.3333L44.0002 22L69.6668 29.3333C72.5842 29.3333 75.3821 30.4923 77.445 32.5552C79.5079 34.6181 80.6668 37.416 80.6668 40.3333V47.6667C80.6668 50.584 79.5079 53.3819 77.445 55.4448C75.3821 57.5077 72.5842 58.6667 69.6668 58.6667H69.5128C69.2558 59.8955 68.6876 61.0378 67.8626 61.9841C67.0376 62.9304 65.9835 63.6491 64.8012 64.0713L62.4985 64.8927C50.5363 69.1648 37.4641 69.1648 25.5018 64.8927L23.1992 64.0713C22.0169 63.6491 20.9627 62.9304 20.1378 61.9841C19.3128 61.0378 18.7445 59.8955 18.4875 58.6667H18.3335C15.4161 58.6667 12.6182 57.5077 10.5553 55.4448C8.49242 53.3819 7.3335 50.584 7.3335 47.6667V40.3333C7.3335 37.416 8.49242 34.6181 10.5553 32.5552C12.6182 30.4923 15.4161 29.3333 18.3335 29.3333ZM18.3335 36.6667C17.361 36.6667 16.4284 37.053 15.7408 37.7406C15.0531 38.4282 14.6668 39.3609 14.6668 40.3333V47.6667C14.6668 48.6391 15.0531 49.5718 15.7408 50.2594C16.4284 50.947 17.361 51.3333 18.3335 51.3333V36.6667ZM69.6668 51.3333C70.6393 51.3333 71.5719 50.947 72.2596 50.2594C72.9472 49.5718 73.3335 48.6391 73.3335 47.6667V40.3333C73.3335 39.3609 72.9472 38.4282 72.2596 37.7406C71.5719 37.053 70.6393 36.6667 69.6668 36.6667V51.3333ZM33.0002 36.6667V42.1667H55.0002V36.6667H33.0002ZM33.0002 49.5V55H55.0002V49.5H33.0002Z" /><path d="M69.6668 29.3333L44.0002 22L18.3335 29.3333C15.4161 29.3333 12.6182 30.4923 10.5553 32.5552C8.49242 34.6181 7.3335 37.416 7.3335 40.3333V47.6667C7.3335 50.584 8.49242 53.3819 10.5553 55.4448C12.6182 57.5077 15.4161 58.6667 18.3335 58.6667H18.4875C18.7445 59.8955 19.3128 61.0378 20.1378 61.9841C20.9627 62.9304 22.0169 63.6491 23.1992 64.0713L25.5018 64.8927C37.4641 69.1648 50.5363 69.1648 62.4985 64.8927L64.8012 64.0713C65.9835 63.6491 67.0376 62.9304 67.8626 61.9841C68.6876 61.0378 69.2558 59.8955 69.5128 58.6667H69.6668C72.5842 58.6667 75.3821 57.5077 77.445 55.4448C79.5079 53.3819 80.6668 50.584 80.6668 47.6667V40.3333C80.6668 37.416 79.5079 34.6181 77.445 32.5552C75.3821 30.4923 72.5842 29.3333 69.6668 29.3333ZM73.3335 40.3333C73.3335 39.3609 72.9472 38.4282 72.2596 37.7406C71.5719 37.053 70.6393 36.6667 69.6668 36.6667V51.3333C70.6393 51.3333 71.5719 50.947 72.2596 50.2594C72.9472 49.5718 73.3335 48.6391 73.3335 47.6667V40.3333ZM14.6668 47.6667C14.6668 48.6391 15.0531 49.5718 15.7408 50.2594C16.4284 50.947 17.361 51.3333 18.3335 51.3333V36.6667C17.361 36.6667 16.4284 37.053 15.7408 37.7406C15.0531 38.4282 14.6668 39.3609 14.6668 40.3333V47.6667ZM55.0002 36.6667H33.0002V42.1667H55.0002V36.6667ZM33.0002 55V49.5H55.0002V55H33.0002Z" /></symbol>

</svg>